<svg width="173" height="146" viewBox="0 0 173 146" fill="none" xmlns="http://www.w3.org/2000/svg">
<path d="M172.341 37.5495L151.379 73.0331L129.126 35.8722L150.087 0.388565L172.341 37.5495Z" fill="#81D8DF"/>
<path d="M63.5271 0L42.5657 35.4836L65.0791 72.9036L86.0405 37.42L63.5271 0Z" fill="#007FAF"/>
<path d="M63.5271 0L42.5657 35.4836L129.126 35.8722L150.087 0.388577L63.5271 0Z" fill="#00A3D3"/>
<path d="M108.814 145.814L129.775 110.343L43.215 109.954L22.2536 145.425L108.814 145.814Z" fill="#729E33"/>
<path d="M108.814 145.814L129.775 110.33L107.262 72.9101L86.3002 108.394L108.814 145.814Z" fill="#8AC543"/>
<path d="M0 107.351L20.9614 71.8674L43.2151 109.942L22.2536 145.432L0 107.351Z" fill="#618425"/>
</svg>
